
<svg width="640" height="640" viewBox="0 0 640 640" fill="none" xmlns="http://www.w3.org/2000/svg">
    <defs>
        <filter id="glow" x="-50%" y="-50%" width="200%" height="200%">
            <feFlood result="flood" flood-color="#B995FF" flood-opacity="0.6"></feFlood>
            <feComposite in="flood" result="mask" in2="SourceGraphic" operator="in"></feComposite>
            <feMorphology in="mask" result="dilated" operator="dilate" radius="4"></feMorphology>
            <feGaussianBlur in="dilated" result="blurred" stdDeviation="10"></feGaussianBlur>
            <feMerge>
                <feMergeNode in="blurred"></feMergeNode>
                <feMergeNode in="SourceGraphic"></feMergeNode>
            </feMerge>
        </filter>
        <radialGradient id="grad1" cx="50%" cy="50%" r="50%" fx="50%" fy="50%">
            <stop offset="0%" stop-color="#CFF7DE" stop-opacity="0.1" />
            <stop offset="100%" stop-color="#A5E6C2" stop-opacity="0" />
        </radialGradient>
        <radialGradient id="grad2" cx="50%" cy="50%" r="50%" fx="50%" fy="50%">
            <stop offset="0%" stop-color="#B995FF" stop-opacity="0.15" />
            <stop offset="100%" stop-color="#9EB7FF" stop-opacity="0" />
        </radialGradient>
    </defs>
    <rect width="640" height="640" fill="url(#grad2)" rx="320" />
    <rect width="640" height="640" fill="url(#grad1)" rx="320" style="mix-blend-mode: screen;" />
    <g filter="url(#glow)" opacity="0.9">
        <path d="M320 180 C260 180, 220 220, 220 280 C220 340, 260 380, 320 380 C380 380, 420 340, 420 280 C420 220, 380 180, 320 180 Z" fill="none" stroke="#B995FF" stroke-width="2" />
        <path d="M320 230 Q280 260, 320 290 Q360 260, 320 230" stroke="#CFF7DE" stroke-width="1.5" fill="none" />
        <path d="M320 330 Q280 300, 320 270 Q360 300, 320 330" stroke="#A5E6C2" stroke-width="1.5" fill="none" />
        <path d="M270 280 Q300 320, 330 280" stroke="#9EB7FF" stroke-width="1.5" fill="none" />
        <path d="M370 280 Q340 240, 310 280" stroke="#B995FF" stroke-width="1.5" fill="none" />
        <circle cx="320" cy="280" r="8" fill="#CFF7DE" />
        <path d="M290 220 L292 225 M350 220 L348 225 M290 340 L292 335 M350 340 L348 335" stroke="#B995FF" stroke-width="1" stroke-linecap="round" />
    </g>
</svg>
